<svg xmlns="http://www.w3.org/2000/svg" viewBox="0 0 200 200" width="200" height="200">
  <!-- Beanie shape -->
  <ellipse cx="100" cy="140" rx="65" ry="30" fill="#756DF3"/>
  <path d="M35 140 Q35 70 100 50 Q165 70 165 140" fill="#756DF3"/>
  <!-- Ribbed band -->
  <ellipse cx="100" cy="140" rx="65" ry="20" fill="#5f57d4"/>
  <!-- Knit texture lines -->
  <path d="M50 90 Q100 85 150 90" fill="none" stroke="#6860e0" stroke-width="1"/>
  <path d="M45 105 Q100 100 155 105" fill="none" stroke="#6860e0" stroke-width="1"/>
  <path d="M40 120 Q100 115 160 120" fill="none" stroke="#6860e0" stroke-width="1"/>
  <!-- Pom pom -->
  <circle cx="100" cy="45" r="15" fill="#FFD18C"/>
  <circle cx="95" cy="40" r="3" fill="#ffe4b5"/>
  <circle cx="105" cy="42" r="2" fill="#ffe4b5"/>

  <!-- MetalBear logo embroidered -->
  <g transform="translate(100, 100) scale(0.25)">
    <circle cx="0" cy="0" r="30" fill="none" stroke="#f5f5f5" stroke-width="4"/>
    <circle cx="-22" cy="-22" r="12" fill="none" stroke="#f5f5f5" stroke-width="3"/>
    <circle cx="22" cy="-22" r="12" fill="none" stroke="#f5f5f5" stroke-width="3"/>
    <circle cx="-8" cy="-5" r="4" fill="#f5f5f5"/>
    <circle cx="8" cy="-5" r="4" fill="#f5f5f5"/>
    <ellipse cx="0" cy="10" rx="8" ry="5" fill="none" stroke="#f5f5f5" stroke-width="2"/>
  </g>
</svg>
