<svg xmlns="http://www.w3.org/2000/svg" viewBox="0 0 200 200" width="200" height="200">
  <!-- Sticker 1 - Round bear -->
  <circle cx="70" cy="70" r="35" fill="#756DF3"/>
  <g transform="translate(70, 70) scale(0.4)">
    <circle cx="0" cy="0" r="30" fill="#f5f5f5"/>
    <circle cx="-22" cy="-22" r="12" fill="#f5f5f5"/>
    <circle cx="22" cy="-22" r="12" fill="#f5f5f5"/>
    <circle cx="-22" cy="-22" r="6" fill="#756DF3"/>
    <circle cx="22" cy="-22" r="6" fill="#756DF3"/>
    <circle cx="-8" cy="-5" r="5" fill="#222"/>
    <circle cx="8" cy="-5" r="5" fill="#222"/>
    <ellipse cx="0" cy="10" rx="10" ry="7" fill="#FFD18C"/>
    <ellipse cx="0" cy="7" rx="4" ry="3" fill="#222"/>
  </g>

  <!-- Sticker 2 - Hexagon -->
  <polygon points="145,45 175,60 175,90 145,105 115,90 115,60" fill="#FFD18C" stroke="#222" stroke-width="2"/>
  <text x="145" y="72" font-family="Arial, sans-serif" font-size="8" font-weight="bold" fill="#222" text-anchor="middle">METAL</text>
  <text x="145" y="84" font-family="Arial, sans-serif" font-size="8" font-weight="bold" fill="#222" text-anchor="middle">BEAR</text>

  <!-- Sticker 3 - Rectangle -->
  <rect x="40" y="120" width="60" height="40" rx="5" fill="#222"/>
  <text x="70" y="138" font-family="Arial, sans-serif" font-size="7" fill="#756DF3" text-anchor="middle">mirrord</text>
  <text x="70" y="150" font-family="Arial, sans-serif" font-size="5" fill="#f5f5f5" text-anchor="middle">by MetalBear</text>

  <!-- Sticker 4 - Heart bear -->
  <path d="M140 140 Q140 125 150 125 Q160 125 160 140 Q160 155 140 170 Q120 155 120 140 Q120 125 130 125 Q140 125 140 140" fill="#756DF3"/>
  <circle cx="140" cy="145" r="8" fill="#f5f5f5"/>
  <circle cx="137" cy="143" r="2" fill="#222"/>
  <circle cx="143" cy="143" r="2" fill="#222"/>
  <ellipse cx="140" cy="148" rx="2" ry="1.5" fill="#222"/>
</svg>
